<svg xmlns="http://www.w3.org/2000/svg" width="126.1" height="34.46" viewBox="0 0 126.1 34.46">
    <polygon points="4.73 7.26 7.27 5.81 7.61 6.4 16.98 0.99 16.3 0.6 15.61 0.19 15.27 0 0 8.82 0 9.21 4.39 6.68 4.73 7.26" fill="#001d3d" class="ren-logo-block" />
    <polygon points="4.73 12.81 12.07 8.57 12.41 9.17 21.78 3.77 21.1 3.36 20.41 2.97 20.07 2.77 0 14.36 0 14.75 4.39 12.22 4.73 12.81" fill="#001d3d" class="ren-logo-block" />
    <polygon points="4.73 15.59 14.47 9.96 14.81 10.56 24.18 5.15 23.5 4.76 22.81 4.36 22.47 4.16 0 17.13 0 17.53 4.39 14.99 4.73 15.59" fill="#001d3d" class="ren-logo-block" />
    <polygon points="4.73 18.36 16.94 11.31 17.29 11.9 26.58 6.54 25.9 6.13 25.21 5.74 24.87 5.54 0 19.9 0 20.3 4.39 17.77 4.73 18.36" fill="#001d3d" class="ren-logo-block" />
    <polygon points="4.73 21.13 19.34 12.69 19.69 13.29 28.99 7.92 28.3 7.53 27.61 7.13 27.27 6.93 0 22.67 0 23.07 4.39 20.54 4.73 21.13" fill="#001d3d" class="ren-logo-block" />
    <polygon points="30.01 8.52 29.67 8.31 0 25.45 0 25.84 4.39 23.31 4.73 23.9 19.34 15.47 19.69 16.06 30.53 9.81 30.53 9.01 30.53 8.82 30.01 8.52" fill="#001d3d" class="ren-logo-block" />
    <polygon points="1.88 27.53 4.34 26.11 4.68 26.7 19.27 18.28 19.62 18.88 30.53 12.57 30.53 11.78 30.53 10.99 30.53 10.59 1.55 27.33 1.88 27.53" fill="#001d3d" class="ren-logo-block" />
    <polygon points="19.27 21.06 19.62 21.65 30.53 15.35 30.53 14.56 30.53 13.76 30.53 13.37 3.95 28.71 4.29 28.91 6.79 27.47 7.13 28.06 19.27 21.06" fill="#001d3d" class="ren-logo-block" />
    <polygon points="6.69 30.3 9.19 28.85 9.53 29.45 19.27 23.82 19.62 24.42 30.53 18.12 30.53 17.32 30.53 16.54 30.53 16.14 6.34 30.1 6.69 30.3" fill="#001d3d" class="ren-logo-block" />
    <polygon points="9.09 31.69 11.59 30.25 11.93 30.84 19.27 26.6 19.62 27.19 30.53 20.89 30.53 20.1 30.53 19.31 30.53 18.91 8.75 31.49 9.09 31.69" fill="#001d3d" class="ren-logo-block" />
    <polygon points="11.15 32.87 11.49 33.07 14 31.63 14.33 32.22 19.27 29.37 19.62 29.97 30.53 23.66 30.53 22.87 30.53 22.08 30.53 21.68 11.15 32.87" fill="#001d3d" class="ren-logo-block" />
    <polygon points="13.89 34.46 16.39 33.01 16.73 33.61 19.27 32.14 19.62 32.73 30.53 26.44 30.53 25.65 30.53 24.85 30.53 24.46 13.55 34.26 13.89 34.46" fill="#001d3d" class="ren-logo-block" />
    <polygon points="19.38 2.38 18.7 1.98 18.7 1.98 18.01 1.59 17.67 1.39 0 11.58 0 11.98 4.39 9.45 4.73 10.04 9.67 7.19 10.02 7.79 19.38 2.38" fill="#001d3d" class="ren-logo-block" />
    <path d="M75.08,28H72.45v6.44H70V19.1h4.85c4.12,0,6.6.87,6.6,4.42a3.83,3.83,0,0,1-3,4L82,34.38h-2.7L76.08,28Zm-2.63-2h2.76c2.26,0,3.8-.34,3.8-2.45s-1.67-2.47-3.84-2.47H72.45Z" transform="translate(-11.59 -4.48)" fill="#001b3a" class="ren-logo-letter" />
    <path
        d="M94,31.08a5,5,0,0,1-5.11,3.61c-3.68,0-5.66-2.68-5.66-6,0-3.53,2.36-5.87,5.59-5.87,3.51,0,5.56,2.87,5.33,6.57H85.46c.21,2.09,1.54,3.4,3.31,3.4a2.91,2.91,0,0,0,3-1.73Zm-2.13-3.4a3,3,0,0,0-3-3.05H88.8a3.07,3.07,0,0,0-3.27,3.05Z"
        transform="translate(-11.59 -4.48)"
        fill="#001b3a" class="ren-logo-letter"
    />
    <path d="M102,22.84c2.74,0,3.8,1.78,3.8,4.41v7.16h-2.2V27.85c0-1.65-.27-3.17-2.34-3.17-1.9,0-2.83,1.37-2.83,3.63v6.1h-2.2V23.05h2.2V24.7A3.81,3.81,0,0,1,102,22.84Z" transform="translate(-11.59 -4.48)" fill="#001b3a" class="ren-logo-letter" />
    <path d="M114,31.73l4-12.63h2.54l-5.22,15.31h-2.73L107.23,19.1h2.64Z" transform="translate(-11.59 -4.48)" fill="#001b3a" class="ren-logo-letter" />
    <path d="M124.64,21.53V34.41h-2.37V19.1h3.87L130,31.61l3.82-12.51h3.87V34.41h-2.36V21.53l-4.08,12.88h-2.49Z" transform="translate(-11.59 -4.48)" fill="#001b3a" class="ren-logo-letter" />
    <line class="ren-logo-block" x1="45.24" y1="8.69" x2="45.24" y2="26.2" fill="none" stroke="#001d3d" stroke-miterlimit="10" stroke-width="0.5" />
    <path d="M73.8,11.19c0,1.37-1,1.64-2.28,1.64h-1V15h-.73V9.55h1.73C72.89,9.55,73.8,9.83,73.8,11.19Zm-3.19,1h1c.82,0,1.42-.09,1.42-1s-.64-1-1.42-1h-1Z" transform="translate(-11.59 -4.48)" fill="#667689" class="ren-logo-powered" />
    <path d="M76,15.11a1.93,1.93,0,0,1-2-2.1A2,2,0,1,1,78,13,1.92,1.92,0,0,1,76,15.11ZM77.26,13c0-1.09-.59-1.5-1.23-1.5s-1.23.41-1.23,1.5.59,1.5,1.23,1.5S77.26,14.06,77.26,13Z" transform="translate(-11.59 -4.48)" fill="#667689" class="ren-logo-powered" />
    <path d="M81.26,11l.82,3,.77-3h.73L82.4,15h-.64l-.91-3.27L80,15h-.64l-1.18-4h.72l.78,3,.82-3Z" transform="translate(-11.59 -4.48)" fill="#667689" class="ren-logo-powered" />
    <path
        d="M85.86,14.51A1,1,0,0,0,87,13.83h.73a1.8,1.8,0,0,1-1.82,1.28,2,2,0,0,1-2-2.14,2,2,0,0,1,2-2.1,2,2,0,0,1,1.91,2.32H84.58A1.28,1.28,0,0,0,85.86,14.51ZM87,12.6a1.21,1.21,0,0,0-2.41,0Z"
        transform="translate(-11.59 -4.48)"
        fill="#667689" class="ren-logo-powered"
    />
    <path d="M90.18,11.65c-.64,0-1,.36-1,1.23V15h-.68V11h.68v.72A1.21,1.21,0,0,1,90.36,11h.18v.72A1.23,1.23,0,0,0,90.18,11.65Z" transform="translate(-11.59 -4.48)" fill="#667689" class="ren-logo-powered" />
    <path
        d="M92.86,14.51a1.06,1.06,0,0,0,1.1-.68h.72a1.79,1.79,0,0,1-1.82,1.28,2,2,0,0,1-2-2.14,2,2,0,0,1,2-2.1,2,2,0,0,1,1.91,2.32H91.59A1.25,1.25,0,0,0,92.86,14.51ZM94,12.6a1.21,1.21,0,0,0-2.41,0Z"
        transform="translate(-11.59 -4.48)"
        fill="#667689" class="ren-logo-powered"
    />
    <path
        d="M99,9.55V15h-.69v-.59a1.45,1.45,0,0,1-1.32.73,1.86,1.86,0,0,1-1.73-2.09A1.86,1.86,0,0,1,97,11a1.37,1.37,0,0,1,1.32.72v-2H99ZM96,13c0,1,.46,1.5,1.19,1.5s1.18-.45,1.18-1.5-.59-1.5-1.18-1.5S96,12.06,96,13Z"
        transform="translate(-11.59 -4.48)"
        fill="#667689" class="ren-logo-powered"
    />
    <path
        d="M102.6,11.6a1.46,1.46,0,0,1,1.32-.73,1.87,1.87,0,0,1,1.73,2.1c0,1.36-.82,2.09-1.73,2.09a1.37,1.37,0,0,1-1.32-.73v.59h-.68V9.46h.68ZM104.88,13c0-.95-.46-1.5-1.19-1.5s-1.18.46-1.18,1.5.59,1.5,1.18,1.5S104.88,14,104.88,13Z"
        transform="translate(-11.59 -4.48)"
        fill="#667689" class="ren-logo-powered"
    />
    <path d="M107.88,15.2c-.27.86-.5,1.13-1.41,1.13h-.37v-.59h.28c.45,0,.68,0,.86-.68l.05-.09-1.46-4.05h.77l1.05,3.14,1-3.14h.73Z" transform="translate(-11.59 -4.48)" fill="#667689" class="ren-logo-powered" />
</svg>
