<svg xmlns="http://www.w3.org/2000/svg" width="705.33" height="261" viewBox="0 0 705.33 261">
    <path
        d="M102.35,216.27v1.79H87.13v6.38h13v1.91h-13v9.52H81.56v-19.6Zm71.88,0v19.6h-5.57v-19.6Zm74.78,0,11.3,15v-15h4.79v19.6h-6l-11.46-15.63v15.63h-5.1v-19.6Zm91.81,0h7.06l10.2,19.6h-5.41l-2.75-5.79H339.25l-2.51,5.79H331Zm8.24,11.79L344.35,218l-4.24,10.08Zm80.5-11.79,11.31,15v-15h4.78v19.6h-6l-11.46-15.63v15.63h-5.1v-19.6Zm100.37,7.49v-4.2c0-1.44-1-1.76-5.57-1.76-5.18,0-6,.26-6,2.09v12.78c0,1.15,1.73,1.67,5.42,1.67a24.19,24.19,0,0,0,5.33-.44c.55-.2.79-.67.79-1.41v-4.14h5.34V233c0,2-3.85,3.09-11,3.09-7.38,0-11.22-1.21-11.22-3.44v-12c0-2,.23-2.88,1-3.38,1.17-.82,4.71-1.29,9.57-1.29,8.16,0,11.62.82,11.62,2.76v5Zm93.85-7.49v1.91H607.93v6.26h13.26v1.91H607.93v7.38h15.85v2.14H602.35v-19.6Z"
        style="fill: #29194f;"
        class="z-logo-finance"
    />
    <path
        d="M177.74,176.65c.33-.66.65-1.34,1-2,.2-.42.41-.85.61-1.28.41-.89.79-1.79,1.17-2.69l.27-.62c.43-1.05.85-2.12,1.24-3.19l.06-.14a93.59,93.59,0,0,0,4.57-17.38c0-.07,0-.14,0-.21.17-1,.31-2.09.45-3.13,0-.21,0-.41.08-.62.1-.9.19-1.8.28-2.7,0-.37.07-.75.1-1.12,0-.72.1-1.45.14-2.17,0-.57.06-1.13.08-1.7s0-1.05,0-1.58c0-.77,0-1.55,0-2.32,0-.32,0-.63,0-.95,0-1,0-2-.08-2.94,0-.11,0-.22,0-.33A94.11,94.11,0,0,0,177.67,91.4c-.27-.53-.56-1.05-.84-1.58s-.56-1.08-.85-1.61h0a93.81,93.81,0,0,0-13-18,5,5,0,0,0-7.06-.29,5.77,5.77,0,0,0-.85,1,5,5,0,0,0,.56,6.06,84.1,84.1,0,0,1,21.47,46v.09c.14,1,.25,2,.34,3.06,0,.19,0,.37,0,.55.08.87.14,1.74.19,2.6,0,.35,0,.7.05,1q0,1.05.06,2.1c0,.52,0,1.05,0,1.57s0,1,0,1.57q0,1-.06,2.1c0,.35,0,.7-.05,1.05,0,.87-.11,1.74-.19,2.6,0,.18,0,.37,0,.55-.09,1-.2,2-.34,3.06v.1a84.16,84.16,0,0,1-21.47,46,5,5,0,0,0-.56,6,5.12,5.12,0,0,0,.85,1,5,5,0,0,0,7.06-.29,93.83,93.83,0,0,0,13-18h0c.18-.32.34-.65.52-1C177,178.16,177.35,177.41,177.74,176.65Z"
        style="fill: #4c377f;"
        class="z-logo-bracket"
    />
    <path
        d="M29.1,176.65c-.33-.66-.65-1.34-1-2-.21-.42-.42-.85-.62-1.28-.41-.89-.79-1.79-1.17-2.69l-.27-.62c-.43-1.05-.85-2.12-1.24-3.19l-.06-.14a93.59,93.59,0,0,1-4.57-17.38c0-.07,0-.14,0-.21-.17-1-.31-2.09-.45-3.13,0-.21,0-.41-.07-.62-.11-.9-.2-1.8-.28-2.7,0-.37-.07-.75-.1-1.12-.06-.72-.11-1.45-.15-2.17,0-.57-.06-1.13-.08-1.7s0-1.05,0-1.58c0-.77,0-1.55,0-2.32,0-.32,0-.63,0-.95,0-1,0-2,.08-2.94,0-.11,0-.22,0-.33A94.11,94.11,0,0,1,29.17,91.4c.27-.53.56-1.05.84-1.58s.56-1.08.85-1.61h0a93.33,93.33,0,0,1,13-18,5,5,0,0,1,7.06-.29,5.36,5.36,0,0,1,.85,1A5,5,0,0,1,51.21,77a84,84,0,0,0-21.48,46v.09c-.14,1-.25,2-.34,3.06,0,.19,0,.37-.05.55-.08.87-.14,1.74-.18,2.6l-.06,1q0,1.05-.06,2.1c0,.52,0,1.05,0,1.57s0,1,0,1.57q0,1,.06,2.1l.06,1.05c0,.87.1,1.74.18,2.6,0,.18,0,.37.05.55.09,1,.2,2,.34,3.06v.1a84.11,84.11,0,0,0,21.48,46,5,5,0,0,1,.55,6,4.8,4.8,0,0,1-.85,1,5,5,0,0,1-7.06-.29,93.83,93.83,0,0,1-13-18h0c-.18-.32-.34-.65-.52-1C29.9,178.16,29.49,177.41,29.1,176.65Z"
        style="fill: #4c377f;"
        class="z-logo-bracket"
    />
    <polygon
        points="51.33 91.02 51.31 91 51.31 91.02 51.29 91.02 51.29 110.6 51.31 110.6 51.31 130.19 72.66 110.6 116.84 110.6 50.82 157.49 50.82 157.49 50.82 157.52 50.82 157.52 50.82 177.1 110.51 177.1 90.94 157.52 88.1 157.52 154.17 110.6 154.19 110.6 154.19 91.02 51.33 91.02"
        style="fill: #4c377f;"
        class="z-logo-ztop"
    />
    <polygon class="z-logo-zbottom" points="133.03 157.38 133.03 157.38 132.86 157.53 101.46 157.53 108.89 164.96 108.9 164.96 116.21 172.27 116.22 172.27 121.05 177.1 154.23 177.1 154.23 177.06 154.25 177.09 154.25 137.9 133.03 157.38" style="fill: #29194f;" />
    <path
        d="M211.78,30.29c12.81,0,17.61,7.06,17.61,14.11,0,6.4-4.8,13.67-17.61,13.67-12.11,0-17.6-7.27-17.6-13.67C194.18,37.35,199.67,30.29,211.78,30.29ZM196,75.93h31.78V186.19H196Zm91.21,112.24c-30.86,0-43.66-13-43.66-38.81V25.22h31.77V146.28c0,10.14,4.81,14.77,13.72,15.43Zm49.84,0c-30.87,0-43.67-13-43.67-38.81V25.22h31.78V146.28c0,10.14,4.8,14.77,13.72,15.43ZM362.2,30.29c12.8,0,17.6,7.06,17.6,14.11,0,6.4-4.8,13.67-17.6,13.67-12.11,0-17.6-7.27-17.6-13.67C344.6,37.35,350.09,30.29,362.2,30.29ZM346.43,75.93H378.2V186.19H346.43Zm95.32-2.2c34.52,0,55.78,25.36,55.78,57.33s-21.26,57.33-55.78,57.33c-34.74,0-55.55-25.36-55.55-57.33S407,73.73,441.75,73.73Zm0,89.75c16.69,0,24-13.46,24-32.42,0-18.52-7.32-32.19-24-32.19S418,112.54,418,131.06C418,150,425.07,163.48,441.75,163.48Zm60.81-87.55h31.78V88.5l1.37.44c6.4-8.82,17.6-15.21,32-15.21,19.43,0,35.66,11.25,35.66,41.9v70.56H571.6v-68.8c0-16.1-8.23-18.52-17.83-18.52a23.71,23.71,0,0,0-19.43,9.48v77.84H502.56Zm112.93,80.93c8.69,3.31,17.38,5.95,26.29,5.95,7.55,0,13-3.08,13-9.92,0-5.51-3.2-8.16-14.4-12.57-18.52-5.95-29.95-14.33-29.95-32,0-22.93,19-34.62,40-34.62,11.2,0,21.95,3.31,31.55,7.72L677.9,105c-8.23-3.31-16.69-5.73-25.37-5.73-5.95,0-11,3.09-11,9,0,4.63,2.52,7.5,15.09,11.91,18.29,6.17,29.72,13.23,29.72,31.75,0,24.7-20.57,35.94-42.29,35.94a83.87,83.87,0,0,1-32.92-7Z"
        style="fill: #29194f;"
        class="z-logo-illions"
    />
</svg>
