<svg xmlns="http://www.w3.org/2000/svg" width="705.33" height="212" viewBox="0 0 705.33 212">
    <path
        d="M177.74,172.9c.34-.66.65-1.33,1-2,.2-.43.42-.86.61-1.29.41-.89.8-1.79,1.18-2.69.08-.2.18-.41.26-.61.44-1.06.85-2.13,1.25-3.19a.88.88,0,0,0,.05-.15,93.21,93.21,0,0,0,4.58-17.38l0-.21c.17-1,.32-2.08.45-3.13,0-.21,0-.41.08-.62.11-.9.2-1.8.28-2.7,0-.37.07-.74.1-1.12.06-.72.1-1.44.14-2.17l.09-1.7c0-.53,0-1.05,0-1.58,0-.77,0-1.54,0-2.32,0-.31,0-.63,0-.95,0-1,0-2-.08-2.94,0-.11,0-.22,0-.33a94,94,0,0,0-10.09-38.17c-.27-.53-.55-1.05-.83-1.58s-.56-1.08-.86-1.61h0a94,94,0,0,0-13-18,5,5,0,0,0-7.06-.29,5.07,5.07,0,0,0-.84,1,5,5,0,0,0,.55,6,84.14,84.14,0,0,1,21.48,46v.1c.13,1,.24,2,.34,3.06,0,.18,0,.36.05.55.07.86.13,1.73.18,2.6,0,.35,0,.69.05,1,0,.7.05,1.4.07,2.1,0,.53,0,1.05,0,1.57s0,1,0,1.58c0,.7,0,1.4-.07,2.1,0,.35,0,.69-.05,1,0,.87-.11,1.74-.18,2.6,0,.19,0,.37-.05.55-.1,1-.21,2.05-.34,3.06v.1a84.14,84.14,0,0,1-21.48,46,5,5,0,0,0-.55,6,5.07,5.07,0,0,0,.84,1,5,5,0,0,0,7.06-.29,92.74,92.74,0,0,0,13-18h0c.18-.33.35-.66.52-1C177,174.41,177.36,173.66,177.74,172.9Z"
        style="fill: #4c377f;"
        class="z-logo-bracket"
    />
    <path
        d="M29.11,172.9c-.34-.66-.65-1.33-1-2-.2-.43-.42-.86-.62-1.29-.4-.89-.79-1.79-1.17-2.69-.08-.2-.18-.41-.26-.61-.44-1.06-.85-2.13-1.25-3.19a.88.88,0,0,1-.05-.15,93.21,93.21,0,0,1-4.58-17.38l0-.21c-.17-1-.32-2.08-.45-3.13,0-.21-.06-.41-.08-.62-.11-.9-.2-1.8-.28-2.7,0-.37-.07-.74-.1-1.12-.06-.72-.1-1.44-.14-2.17l-.09-1.7c0-.53,0-1.05,0-1.58,0-.77,0-1.54,0-2.32,0-.31,0-.63,0-.95,0-1,0-2,.08-2.94,0-.11,0-.22,0-.33A94,94,0,0,1,29.18,87.65c.26-.53.55-1.05.83-1.58s.56-1.08.86-1.61h0a93.57,93.57,0,0,1,13-18,5,5,0,0,1,7-.29,4.8,4.8,0,0,1,.85,1,5,5,0,0,1-.55,6,84.14,84.14,0,0,0-21.48,46v.1c-.13,1-.24,2-.34,3.06,0,.18,0,.36-.05.55-.07.86-.13,1.73-.18,2.6,0,.35,0,.69,0,1,0,.7-.05,1.4-.07,2.1,0,.53,0,1.05,0,1.57s0,1,0,1.58c0,.7,0,1.4.07,2.1,0,.35,0,.69,0,1,.05.87.11,1.74.18,2.6,0,.19,0,.37.05.55.1,1,.21,2.05.34,3.06v.1a84.14,84.14,0,0,0,21.48,46,5,5,0,0,1,.55,6,4.8,4.8,0,0,1-.85,1,5,5,0,0,1-7-.29,92.74,92.74,0,0,1-13-18h0c-.19-.33-.35-.66-.52-1C29.9,174.41,29.49,173.66,29.11,172.9Z"
        style="fill: #4c377f;"
        class="z-logo-bracket"
    />
    <polygon
        points="51.34 87.28 51.31 87.25 51.31 87.28 51.3 87.28 51.3 106.85 51.31 106.85 51.31 126.44 72.66 106.85 116.85 106.85 50.83 153.74 50.83 153.74 50.83 153.78 50.83 153.78 50.83 173.35 110.52 173.35 90.94 153.78 88.1 153.78 154.18 106.85 154.2 106.85 154.2 87.28 51.34 87.28"
        style="fill: #4c377f;"
        class="z-logo-ztop"
    />
    <polygon
        points="133.04 153.63 133.04 153.63 132.87 153.78 101.47 153.78 108.9 161.21 108.91 161.21 116.22 168.52 116.22 168.52 121.06 173.35 154.24 173.35 154.24 173.32 154.26 173.34 154.26 134.15 133.04 153.63"
        style="fill: #29194f;"
        class="z-logo-zbottom"
    />
    <path
        d="M211.79,26.54c12.8,0,17.6,7.06,17.6,14.12,0,6.39-4.8,13.67-17.6,13.67-12.12,0-17.6-7.28-17.6-13.67C194.19,33.6,199.67,26.54,211.79,26.54ZM196,72.19h31.78V182.44H196Zm91.22,112.23c-30.87,0-43.67-13-43.67-38.8V21.47h31.78V142.53c0,10.14,4.8,14.77,13.72,15.43Zm49.83,0c-30.86,0-43.66-13-43.66-38.8V21.47h31.77V142.53c0,10.14,4.8,14.77,13.72,15.43ZM362.21,26.54c12.8,0,17.6,7.06,17.6,14.12,0,6.39-4.8,13.67-17.6,13.67-12.12,0-17.61-7.28-17.61-13.67C344.6,33.6,350.09,26.54,362.21,26.54ZM346.43,72.19h31.78V182.44H346.43ZM441.76,70c34.52,0,55.78,25.36,55.78,57.33s-21.26,57.34-55.78,57.34c-34.75,0-55.55-25.36-55.55-57.34S407,70,441.76,70Zm0,89.75c16.69,0,24-13.45,24-32.42,0-18.52-7.31-32.19-24-32.19S418,108.79,418,127.31C418,146.28,425.07,159.73,441.76,159.73Zm60.81-87.54h31.77V84.76l1.38.44c6.4-8.82,17.6-15.22,32-15.22,19.43,0,35.66,11.25,35.66,41.9v70.56H571.61v-68.8c0-16.09-8.23-18.52-17.83-18.52a23.74,23.74,0,0,0-19.44,9.48v77.84H502.57ZM615.5,153.11c8.68,3.31,17.37,6,26.29,6,7.54,0,13-3.09,13-9.93,0-5.51-3.2-8.15-14.4-12.56-18.52-6-29.95-14.34-29.95-32,0-22.93,19-34.62,40-34.62,11.21,0,21.95,3.31,31.55,7.72l-4.11,23.59c-8.23-3.3-16.69-5.73-25.38-5.73-5.94,0-11,3.09-11,9,0,4.63,2.51,7.5,15.09,11.91,18.29,6.17,29.72,13.23,29.72,31.75,0,24.7-20.58,35.94-42.3,35.94a83.87,83.87,0,0,1-32.92-7Z"
        style="fill: #29194f;"
        class="z-logo-illions"
    />
</svg>
